<svg xmlns="http://www.w3.org/2000/svg" version="1.1" xmlns:xlink="http://www.w3.org/1999/xlink" xmlns:svgjs="http://svgjs.dev/svgjs" width="1440" height="560" preserveAspectRatio="none" viewBox="0 0 1440 560"><g mask="url(&quot;#SvgjsMask1002&quot;)" fill="none"><rect width="1440" height="560" x="0" y="0" fill="url(&quot;#SvgjsLinearGradient1003&quot;)"></rect><path d="M1440 0L853.24 0L1440 113.98z" fill="rgba(255, 255, 255, .1)"></path><path d="M853.24 0L1440 113.98L1440 355.78000000000003L750.04 0z" fill="rgba(255, 255, 255, .075)"></path><path d="M750.04 0L1440 355.78000000000003L1440 378.97L374.17999999999995 0z" fill="rgba(255, 255, 255, .05)"></path><path d="M374.17999999999984 0L1440 378.97L1440 403.74L166.96999999999983 0z" fill="rgba(255, 255, 255, .025)"></path><path d="M0 560L150.97 560L0 319.87z" fill="rgba(0, 0, 0, .1)"></path><path d="M0 319.87L150.97 560L852.97 560L0 252.26z" fill="rgba(0, 0, 0, .075)"></path><path d="M0 252.26L852.97 560L1124.94 560L0 232.48999999999998z" fill="rgba(0, 0, 0, .05)"></path><path d="M0 232.49L1124.94 560L1145.65 560L0 144.12z" fill="rgba(0, 0, 0, .025)"></path></g><defs><mask id="SvgjsMask1002"><rect width="1440" height="560" fill="#ffffff"></rect></mask><linearGradient x1="15.28%" y1="-39.29%" x2="84.72%" y2="139.29%" gradientUnits="userSpaceOnUse" id="SvgjsLinearGradient1003"><stop stop-color="#0e2a47" offset="0"></stop><stop stop-color="#00459e" offset="1"></stop></linearGradient></defs></svg>