<svg xmlns="http://www.w3.org/2000/svg" version="1.1" xmlns:xlink="http://www.w3.org/1999/xlink" xmlns:svgjs="http://svgjs.dev/svgjs" width="1440" height="560" preserveAspectRatio="none" viewBox="0 0 1440 560"><g mask="url(&quot;#SvgjsMask1003&quot;)" fill="none"><rect width="1440" height="560" x="0" y="0" fill="#0e2a47"></rect><path d="M0,352.231C66.996,366.124,136.28,338.526,195.152,303.662C255.414,267.974,304.974,216.243,335.813,153.361C367.187,89.389,376.753,17.723,370.181,-53.224C363.365,-126.802,353.703,-209.749,297.709,-257.966C242.512,-305.497,158.655,-282.857,87.183,-296.918C23.797,-309.388,-34.869,-346.254,-98.641,-335.94C-166.354,-324.988,-229.536,-289.649,-275.049,-238.331C-320.834,-186.706,-338.227,-118.24,-351.731,-50.571C-365.893,20.396,-397.086,103.265,-354.959,162.105C-311.914,222.228,-214.434,197.328,-149.252,232.241C-91.818,263.004,-63.797,339.001,0,352.231" fill="#0b2239"></path><path d="M1440 1069.246C1538.992 1079.77 1647.531 1066.042 1725.173 1003.7370000000001 1800.844 943.0129999999999 1796.575 829.096 1844.436 744.7 1898.724 648.971 2028.5839999999998 585.94 2024.472 475.966 2020.411 367.34299999999996 1889.481 313.897 1825.056 226.34699999999998 1753.25 128.76600000000002 1740.48-33.311000000000035 1624.338-67.79700000000003 1508.269-102.26099999999997 1399.36 6.336000000000013 1295.895 69.22399999999999 1214.941 118.42899999999997 1159.714 192.539 1090.175 256.875 1010.102 330.957 884.072 370.602 856.159 476.056 828.162 581.827 887.363 694.264 950.804 783.408 1008.181 864.03 1105.864 897.058 1191.3029999999999 946.98 1272.71 994.546 1346.243 1059.278 1440 1069.246" fill="#113255"></path></g><defs><mask id="SvgjsMask1003"><rect width="1440" height="560" fill="#ffffff"></rect></mask></defs></svg>